<svg xmlns="http://www.w3.org/2000/svg" viewBox="0 0 1191.24 103.44">
  <path fill="#fff" fill-rule="evenodd" stroke="#000" stroke-linecap="round" stroke-width=".25mm" d="M53.28 83.28H36.6q-1.31-4.167-3.742-8.984a82.06 82.06 0 0 0-.038-.076q-2.46-4.86-5.46-9.48a96.506 96.506 0 0 0-5.889-8.135 88.755 88.755 0 0 0-.411-.505 82.029 82.029 0 0 0-2.83-3.276q-1.448-1.586-2.834-2.908a47.839 47.839 0 0 0-.636-.596v33.96H0V9h14.76v30.84q2.64-3.36 5.52-7.44 2.88-4.08 5.46-8.16a146.617 146.617 0 0 0 4.193-7.048 132.419 132.419 0 0 0 .547-.992q2.017-3.697 3.406-6.767A70.65 70.65 0 0 0 34.08 9h16.68a187.922 187.922 0 0 1-1.596 3.007q-1.108 2.044-2.424 4.373a128.82 128.82 0 0 1-3.183 5.316A156.098 156.098 0 0 1 41.4 25.02a256.922 256.922 0 0 1-5.572 8.013 284.874 284.874 0 0 1-.848 1.167q-3.42 4.68-7.14 9a88.582 88.582 0 0 1 4.223 4.392A111.991 111.991 0 0 1 35.4 51.48q3.84 4.68 7.26 10.02t6.18 10.92a82.546 82.546 0 0 1 3.157 7.195 69.345 69.345 0 0 1 1.283 3.665Zm53.88-56.4v54.48a99.26 99.26 0 0 1-3.305.81q-2.957.675-6.595 1.35a63.93 63.93 0 0 1-7.573.922 79.55 79.55 0 0 1-5.087.158q-6.96 0-11.4-1.92a17.946 17.946 0 0 1-4.406-2.673 15.532 15.532 0 0 1-2.614-2.787 20.03 20.03 0 0 1-2.959-6.019 24.41 24.41 0 0 1-.581-2.321 48.471 48.471 0 0 1-.776-5.704 61.968 61.968 0 0 1-.184-4.856V26.88h14.76V56.4a52.247 52.247 0 0 0 .147 4.07q.309 3.943 1.269 6.481a11.712 11.712 0 0 0 .444 1.029 6.392 6.392 0 0 0 4.417 3.46q1.192.3 2.648.319a15.156 15.156 0 0 0 .195.001q3.36 0 6.72-.6V26.88h14.88Zm14.88 54.72V2.52L136.8 0v28.2a28.659 28.659 0 0 1 3.341-1.306 22.546 22.546 0 0 1 2.659-.674q2.88-.54 5.76-.54a24.662 24.662 0 0 1 5.038.493 19.161 19.161 0 0 1 4.682 1.607q4.2 2.1 7.02 6a25.852 25.852 0 0 1 3.047 5.612 32.802 32.802 0 0 1 1.213 3.688q1.44 5.4 1.44 12 0 6.72-1.8 12.18a27.289 27.289 0 0 1-2.818 6.053 23.526 23.526 0 0 1-2.462 3.247 23.52 23.52 0 0 1-8.441 5.907 26.946 26.946 0 0 1-.079.033 26.79 26.79 0 0 1-6.493 1.753 35.094 35.094 0 0 1-5.027.347 79.14 79.14 0 0 1-.09 0 84.817 84.817 0 0 1-11.67-.84q-6-.84-10.08-2.16Zm14.76-40.92v30.6a23.82 23.82 0 0 0 2.849.427 26.998 26.998 0 0 0 .691.053q1.86.12 3.18.12 5.76 0 9.12-3.9 3.36-3.9 3.36-13.26 0-4.989-1.024-8.502a14.789 14.789 0 0 0-1.556-3.618 8.32 8.32 0 0 0-5.975-4.052 11.576 11.576 0 0 0-1.885-.148q-2.4 0-4.74.66a21.737 21.737 0 0 0-1.921.635q-1.01.389-1.859.851a13.036 13.036 0 0 0-.24.134Zm93.36 19.2h-36.6a10.689 10.689 0 0 0 .873 4.382q1.122 2.529 3.687 4.318a16.832 16.832 0 0 0 5.683 2.504q2.241.549 4.852.652a31.097 31.097 0 0 0 1.225.024 37.046 37.046 0 0 0 6.938-.634 33.579 33.579 0 0 0 1.522-.326q4.02-.96 6.78-1.92l2.04 12.6a65.266 65.266 0 0 1-6.03 1.744 74.057 74.057 0 0 1-2.13.476q-4.32.9-9.72.9-7.2 0-12.9-1.86a27.978 27.978 0 0 1-6.469-3.028 24.389 24.389 0 0 1-3.251-2.492 23.969 23.969 0 0 1-5.831-8.227 27.991 27.991 0 0 1-.349-.833q-2.128-5.321-2.16-12.389a47.725 47.725 0 0 1 0-.211 41.148 41.148 0 0 1 .501-6.579 30.168 30.168 0 0 1 1.779-6.501 31.404 31.404 0 0 1 2.924-5.612 25.542 25.542 0 0 1 3.076-3.808q3.72-3.78 8.52-5.7 4.8-1.92 9.84-1.92 10.253 0 16.456 4.981a19.952 19.952 0 0 1 2.504 2.399 23.689 23.689 0 0 1 4.648 8.398q1.145 3.508 1.574 7.765a53.625 53.625 0 0 1 .258 5.377 70.382 70.382 0 0 1 0 .023q0 1.429-.06 2.977-.054 1.395-.155 2.311a15.358 15.358 0 0 1-.025.209Zm-36.6-10.2h22.56q0-2.28-.6-4.38t-1.92-3.78a9.659 9.659 0 0 0-3.077-2.553 11.224 11.224 0 0 0-.283-.147 9.069 9.069 0 0 0-2.201-.749q-1.01-.212-2.174-.258a16.718 16.718 0 0 0-.665-.013q-2.779 0-4.831.894a8.971 8.971 0 0 0-.149.066 9.765 9.765 0 0 0-2.842 1.939 9.232 9.232 0 0 0-.638.701 12.853 12.853 0 0 0-2.111 3.705 14.428 14.428 0 0 0-.049.135q-.78 2.16-1.02 4.44Zm96.12-21.48-2.64 13.68q-1.44-.36-3.42-.72t-4.02-.66q-2.04-.3-3.96-.42-1.32-.082-2.356-.108a35.649 35.649 0 0 0-.884-.012q-3.12 0-6.12.3a37.628 37.628 0 0 0-5.342.938 41.967 41.967 0 0 0-.778.202v41.88h-14.88V30.6q5.88-2.16 12.06-3.48 5.311-1.134 12.173-1.294a98.432 98.432 0 0 1 2.287-.026q1.2 0 3.42.12a68.704 68.704 0 0 1 2.892.22 83.698 83.698 0 0 1 1.848.2q2.52.3 5.1.72 2.58.42 4.62 1.14Zm12.48 55.08v-54.6a70.224 70.224 0 0 1 3.232-.793q1.455-.324 3.092-.635a142.477 142.477 0 0 1 3.456-.612 71.451 71.451 0 0 1 7.472-.814 89.306 89.306 0 0 1 5.188-.146q5.206 0 9.043 1.116a19.753 19.753 0 0 1 2.117.744 18.262 18.262 0 0 1 4.193 2.417 15.296 15.296 0 0 1 2.827 2.863 20.006 20.006 0 0 1 2.91 5.53 24.817 24.817 0 0 1 .75 2.63 42.334 42.334 0 0 1 .873 5.655 54.729 54.729 0 0 1 .207 4.845v31.8h-14.76V53.4a55.277 55.277 0 0 0-.127-3.894q-.261-3.678-1.058-6.034A10.589 10.589 0 0 0 330.96 42q-1.8-3.48-7.32-3.48-1.68 0-3.3.12a55.81 55.81 0 0 0-2.313.222 65.893 65.893 0 0 0-1.107.138v44.28h-14.76Zm108-23.4h-36.6a10.689 10.689 0 0 0 .873 4.382q1.122 2.529 3.687 4.318a16.832 16.832 0 0 0 5.683 2.504q2.241.549 4.852.652a31.097 31.097 0 0 0 1.225.024 37.046 37.046 0 0 0 6.938-.634 33.579 33.579 0 0 0 1.522-.326q4.02-.96 6.78-1.92l2.04 12.6a65.266 65.266 0 0 1-6.03 1.744 74.057 74.057 0 0 1-2.13.476q-4.32.9-9.72.9-7.2 0-12.9-1.86a27.978 27.978 0 0 1-6.469-3.028 24.389 24.389 0 0 1-3.251-2.492 23.969 23.969 0 0 1-5.831-8.227 27.991 27.991 0 0 1-.349-.833q-2.128-5.321-2.16-12.389a47.725 47.725 0 0 1 0-.211 41.148 41.148 0 0 1 .501-6.579 30.168 30.168 0 0 1 1.779-6.501 31.404 31.404 0 0 1 2.924-5.612 25.542 25.542 0 0 1 3.076-3.808q3.72-3.78 8.52-5.7 4.8-1.92 9.84-1.92 10.253 0 16.456 4.981a19.952 19.952 0 0 1 2.504 2.399 23.689 23.689 0 0 1 4.648 8.398q1.145 3.508 1.574 7.765a53.625 53.625 0 0 1 .258 5.377 70.382 70.382 0 0 1 0 .023q0 1.429-.06 2.977-.054 1.395-.155 2.311a15.358 15.358 0 0 1-.025.209Zm-36.6-10.2h22.56q0-2.28-.6-4.38t-1.92-3.78a9.659 9.659 0 0 0-3.077-2.553 11.224 11.224 0 0 0-.283-.147 9.069 9.069 0 0 0-2.201-.749q-1.01-.212-2.174-.258a16.718 16.718 0 0 0-.665-.013q-2.779 0-4.831.894a8.971 8.971 0 0 0-.149.066 9.765 9.765 0 0 0-2.842 1.939 9.232 9.232 0 0 0-.638.701 12.853 12.853 0 0 0-2.111 3.705 14.428 14.428 0 0 0-.049.135q-.78 2.16-1.02 4.44Zm58.2 12.6V39.12h-12.84V26.88h12.84V12.72l14.76-2.4v16.56h23.64v12.24h-23.64v22.8a26.965 26.965 0 0 0 .059 1.833q.129 1.887.541 3.207.6 1.92 1.68 3t2.64 1.44a13.73 13.73 0 0 0 1.841.289 18.073 18.073 0 0 0 1.639.071q2.04 0 3.78-.12a29.804 29.804 0 0 0 3.157-.383 27.433 27.433 0 0 0 .203-.037 22.21 22.21 0 0 0 2.284-.554 26.266 26.266 0 0 0 1.076-.346q1.74-.6 3.78-1.56l2.04 12.72q-4.08 1.68-8.82 2.4a62.453 62.453 0 0 1-7.504.695 55.829 55.829 0 0 1-1.676.025 54.302 54.302 0 0 1-4.285-.161q-2.2-.174-4.13-.538a31.623 31.623 0 0 1-.705-.141q-3.96-.84-6.72-3.24a12.746 12.746 0 0 1-2.624-3.217q-.923-1.578-1.576-3.563a24.74 24.74 0 0 1-.863-3.581q-.577-3.399-.577-7.879Zm98.4-2.4h-36.6a10.689 10.689 0 0 0 .873 4.382q1.122 2.529 3.687 4.318a16.832 16.832 0 0 0 5.683 2.504q2.241.549 4.852.652a31.097 31.097 0 0 0 1.225.024 37.046 37.046 0 0 0 6.938-.634 33.579 33.579 0 0 0 1.522-.326q4.02-.96 6.78-1.92l2.04 12.6a65.266 65.266 0 0 1-6.03 1.744 74.057 74.057 0 0 1-2.13.476q-4.32.9-9.72.9-7.2 0-12.9-1.86a27.978 27.978 0 0 1-6.469-3.028 24.389 24.389 0 0 1-3.251-2.492 23.969 23.969 0 0 1-5.831-8.227 27.991 27.991 0 0 1-.349-.833q-2.128-5.321-2.16-12.389a47.725 47.725 0 0 1 0-.211 41.148 41.148 0 0 1 .501-6.579 30.168 30.168 0 0 1 1.779-6.501 31.404 31.404 0 0 1 2.924-5.612 25.542 25.542 0 0 1 3.076-3.808q3.72-3.78 8.52-5.7 4.8-1.92 9.84-1.92 10.253 0 16.456 4.981a19.952 19.952 0 0 1 2.504 2.399 23.689 23.689 0 0 1 4.648 8.398q1.145 3.508 1.574 7.765a53.625 53.625 0 0 1 .258 5.377 70.382 70.382 0 0 1 0 .023q0 1.429-.06 2.977-.054 1.395-.155 2.311a15.358 15.358 0 0 1-.025.209Zm-36.6-10.2h22.56q0-2.28-.6-4.38t-1.92-3.78a9.659 9.659 0 0 0-3.077-2.553 11.224 11.224 0 0 0-.283-.147 9.069 9.069 0 0 0-2.201-.749q-1.01-.212-2.174-.258a16.718 16.718 0 0 0-.665-.013q-2.779 0-4.831.894a8.971 8.971 0 0 0-.149.066 9.765 9.765 0 0 0-2.842 1.939 9.232 9.232 0 0 0-.638.701 12.853 12.853 0 0 0-2.111 3.705 14.428 14.428 0 0 0-.049.135q-.78 2.16-1.02 4.44Zm91.56-21-2.28 12.48a127.662 127.662 0 0 1-1.162-.349q-1.861-.566-4.878-1.529a810.082 810.082 0 0 1-.32-.102 28.541 28.541 0 0 0-5.356-1.134 37.328 37.328 0 0 0-4.364-.246 36.366 36.366 0 0 0-2.443.076q-3.661.247-5.177 1.304-1.111.774-1.598 1.605a2.606 2.606 0 0 0-.382 1.335q0 1.32.9 2.34.844.956 2.215 1.754a12.822 12.822 0 0 0 .185.106q1.488.833 3.449 1.608a39.25 39.25 0 0 0 .031.012 61.098 61.098 0 0 0 2.592.952 72.713 72.713 0 0 0 1.668.548q3.24 1.08 6.72 2.4a29.215 29.215 0 0 1 5.035 2.465 26.263 26.263 0 0 1 1.265.835q2.82 1.98 4.62 5.04a12.575 12.575 0 0 1 1.454 3.872q.324 1.576.345 3.386a21.63 21.63 0 0 1 .001.242q0 3.48-1.32 6.6a12.466 12.466 0 0 1-2.959 4.207 15.64 15.64 0 0 1-1.421 1.193q-3.06 2.28-7.98 3.6-3.755 1.007-8.838 1.246a70.074 70.074 0 0 1-3.282.074q-5.953 0-10.477-1.111a28.167 28.167 0 0 1-2.003-.569q-5.16-1.68-8.28-3l2.28-12.36q4.2 1.68 8.94 3.12 4.74 1.44 9.66 1.44a60.258 60.258 0 0 0 2.984-.069q2.798-.139 4.685-.561a14.113 14.113 0 0 0 .611-.15q2.88-.78 2.88-3.18a4.482 4.482 0 0 0-.198-1.357 3.752 3.752 0 0 0-.702-1.283q-.9-1.08-2.52-1.86-1.618-.779-3.716-1.499a72.429 72.429 0 0 0-.004-.001 183.828 183.828 0 0 0-3.251-1.08 205.309 205.309 0 0 0-1.129-.36 97.972 97.972 0 0 1-6.18-2.064 107.242 107.242 0 0 1-.42-.156 28.016 28.016 0 0 1-5.41-2.703 25.742 25.742 0 0 1-.71-.477q-2.76-1.92-4.56-4.86a11.647 11.647 0 0 1-1.401-3.532q-.337-1.483-.389-3.203a21.106 21.106 0 0 1-.01-.645q0-3.6 1.38-6.78a14.755 14.755 0 0 1 3.19-4.611 17.892 17.892 0 0 1 1.13-1.029 18.064 18.064 0 0 1 3.581-2.309q1.782-.884 3.919-1.531a29.704 29.704 0 0 1 4.335-.943q2.232-.324 4.778-.408a55.106 55.106 0 0 1 1.807-.029q5.52 0 10.26.84a42.813 42.813 0 0 1 3.906.873q2.044.563 3.787 1.298a25.445 25.445 0 0 1 .527.229Zm125.64-15.96-3.84 11.76q-2.674-1.744-6.417-2.981a38.453 38.453 0 0 0-.243-.079 25.136 25.136 0 0 0-4.465-.983 34.452 34.452 0 0 0-4.475-.277q-3.48 0-6.78 1.26-3.3 1.26-5.88 4.2a17.921 17.921 0 0 0-2.208 3.191q-.848 1.542-1.545 3.397a32.98 32.98 0 0 0-.447 1.272q-1.62 4.92-1.62 12.24 0 8.021 1.742 13.681a23.299 23.299 0 0 0 2.638 5.819 14.201 14.201 0 0 0 9.179 6.244 23.29 23.29 0 0 0 5.161.536 41.618 41.618 0 0 0 3.884-.17q3.234-.304 5.656-1.15 3.78-1.32 6.06-2.64l3.72 11.64a24.292 24.292 0 0 1-2.529 1.341q-1.255.581-2.738 1.13a55.829 55.829 0 0 1-3.193 1.069q-5.173 1.569-11.867 1.618a59.157 59.157 0 0 1-.433.002 39.04 39.04 0 0 1-9.825-1.164 26.427 26.427 0 0 1-14.175-8.916 33.23 33.23 0 0 1-5.943-11.322q-2.337-7.476-2.337-17.358a57.921 57.921 0 0 1 .591-8.473 43.219 43.219 0 0 1 1.929-7.967 38.641 38.641 0 0 1 3.461-7.398 31.924 31.924 0 0 1 3.559-4.782q4.5-4.98 10.68-7.56a33.776 33.776 0 0 1 10.795-2.489 39.82 39.82 0 0 1 2.705-.091q3.96 0 7.14.66a54.225 54.225 0 0 1 2.633.612q1.298.338 2.432.713a31.537 31.537 0 0 1 .515.175 29.386 29.386 0 0 1 1.821.702q1.237.528 2.199 1.098 1.24.735 2.023 1.189a85.998 85.998 0 0 0 .437.251Zm59.906 49.213a40.632 40.632 0 0 0 .574-6.973q0-6.6-1.92-12.06a31.29 31.29 0 0 0-.812-2.073 26.334 26.334 0 0 0-4.648-7.287q-3.54-3.9-8.4-6t-10.74-2.1a30.77 30.77 0 0 0-1.427.033 26.503 26.503 0 0 0-9.253 2.067q-4.92 2.1-8.46 6-3.54 3.9-5.52 9.36a31.612 31.612 0 0 0-1.3 4.717 38.208 38.208 0 0 0-.68 7.343 42.47 42.47 0 0 0 .27 4.863A33.585 33.585 0 0 0 720 67.14a31.898 31.898 0 0 0 .674 1.751 27.147 27.147 0 0 0 4.786 7.669q3.54 3.96 8.4 6.12a24.098 24.098 0 0 0 4.471 1.477 28.832 28.832 0 0 0 6.389.683q6 0 10.86-2.16 4.86-2.16 8.34-6.12a26.178 26.178 0 0 0 2.208-2.9 29.793 29.793 0 0 0 3.192-6.52 32.443 32.443 0 0 0 1.346-5.207Zm-36.134 2.687a17.037 17.037 0 0 0 1.248 2.7 8.85 8.85 0 0 0 6.378 4.483 13.082 13.082 0 0 0 2.322.197q5.76 0 8.7-4.68a17.726 17.726 0 0 0 2.11-5.02q.571-2.203.749-4.789a35.368 35.368 0 0 0 .081-2.431q0-5.542-1.451-9.504a16.611 16.611 0 0 0-1.249-2.676 8.851 8.851 0 0 0-6.399-4.429 13.267 13.267 0 0 0-2.301-.191 11.374 11.374 0 0 0-3.776.597q-2.969 1.038-4.835 3.885a12.226 12.226 0 0 0-.089.138 17.315 17.315 0 0 0-2.098 4.93q-.579 2.203-.76 4.804a35.27 35.27 0 0 0-.082 2.446q0 5.544 1.452 9.54Zm96.588-15.06v33.72h-12V48.84a44.443 44.443 0 0 0-.041-1.971q-.087-1.961-.361-3.338a13.06 13.06 0 0 0-.018-.091 16.458 16.458 0 0 0-.286-1.181q-.328-1.154-.762-1.886a4.635 4.635 0 0 0-.032-.053q-.541-.885-1.243-1.287a2.533 2.533 0 0 0-.317-.153q-.9-.36-1.86-.36-1.08 0-2.28.18a7.762 7.762 0 0 0-1.34.32 6.472 6.472 0 0 0-.82.34q.36 2.28.6 5.04.24 2.76.24 6.12V61.8h-12V48.84q0-4.412-.669-6.782a7.188 7.188 0 0 0-.471-1.258 4.473 4.473 0 0 0-.947-1.298q-.91-.844-2.26-.963a5.175 5.175 0 0 0-.453-.019 10.829 10.829 0 0 0-.582.017q-.26.014-.55.04a21.666 21.666 0 0 0-.608.063q-1.02.12-1.98.36v44.28h-12V29.04q4.68-1.32 9.24-2.04a66.332 66.332 0 0 1 3.719-.486q2.336-.234 4.321-.234a21.369 21.369 0 0 1 2.944.193 16.015 16.015 0 0 1 2.636.587q2.46.78 4.26 2.58a21.304 21.304 0 0 1 2.371-1.318A28.442 28.442 0 0 1 810 27.3q2.76-1.02 5.76-1.02 3.532 0 6.108.82a12.154 12.154 0 0 1 1.572.62q3 1.44 4.74 4.32a15.233 15.233 0 0 1 1.381 3.03q.64 1.903.959 4.23a59.995 59.995 0 0 1 .41 4.119q.19 2.833.19 6.141Zm60 0v33.72h-12V48.84a44.443 44.443 0 0 0-.041-1.971q-.087-1.961-.361-3.338a13.06 13.06 0 0 0-.018-.091 16.458 16.458 0 0 0-.286-1.181q-.328-1.154-.762-1.886a4.635 4.635 0 0 0-.032-.053q-.541-.885-1.243-1.287a2.533 2.533 0 0 0-.317-.153q-.9-.36-1.86-.36-1.08 0-2.28.18a7.762 7.762 0 0 0-1.34.32 6.472 6.472 0 0 0-.82.34q.36 2.28.6 5.04.24 2.76.24 6.12V61.8h-12V48.84q0-4.412-.669-6.782a7.188 7.188 0 0 0-.471-1.258 4.473 4.473 0 0 0-.947-1.298q-.91-.844-2.26-.963a5.175 5.175 0 0 0-.453-.019 10.829 10.829 0 0 0-.582.017q-.26.014-.55.04a21.666 21.666 0 0 0-.608.063q-1.02.12-1.98.36v44.28h-12V29.04q4.68-1.32 9.24-2.04a66.332 66.332 0 0 1 3.719-.486q2.336-.234 4.321-.234a21.369 21.369 0 0 1 2.944.193 16.015 16.015 0 0 1 2.636.587q2.46.78 4.26 2.58a21.304 21.304 0 0 1 2.371-1.318A28.442 28.442 0 0 1 870 27.3q2.76-1.02 5.76-1.02 3.532 0 6.108.82a12.154 12.154 0 0 1 1.572.62q3 1.44 4.74 4.32a15.233 15.233 0 0 1 1.381 3.03q.64 1.903.959 4.23a59.995 59.995 0 0 1 .41 4.119q.19 2.833.19 6.141Zm56.04-22.68v54.48a99.26 99.26 0 0 1-3.305.81q-2.957.675-6.595 1.35a63.93 63.93 0 0 1-7.573.922 79.55 79.55 0 0 1-5.087.158q-6.96 0-11.4-1.92a17.946 17.946 0 0 1-4.406-2.673 15.532 15.532 0 0 1-2.614-2.787 20.03 20.03 0 0 1-2.959-6.019 24.41 24.41 0 0 1-.581-2.321 48.471 48.471 0 0 1-.776-5.704 61.968 61.968 0 0 1-.184-4.856V26.88h14.76V56.4a52.247 52.247 0 0 0 .147 4.07q.309 3.943 1.269 6.481a11.712 11.712 0 0 0 .444 1.029 6.392 6.392 0 0 0 4.417 3.46q1.192.3 2.648.319a15.156 15.156 0 0 0 .195.001q3.36 0 6.72-.6V26.88h14.88Zm15 56.4v-54.6a70.224 70.224 0 0 1 3.232-.793q1.455-.324 3.092-.635a142.477 142.477 0 0 1 3.456-.612 71.451 71.451 0 0 1 7.472-.814 89.306 89.306 0 0 1 5.188-.146q5.206 0 9.043 1.116a19.753 19.753 0 0 1 2.117.744 18.262 18.262 0 0 1 4.193 2.417 15.296 15.296 0 0 1 2.827 2.863 20.006 20.006 0 0 1 2.91 5.53 24.817 24.817 0 0 1 .75 2.63 42.334 42.334 0 0 1 .873 5.655 54.729 54.729 0 0 1 .207 4.845v31.8h-14.76V53.4a55.277 55.277 0 0 0-.127-3.894q-.261-3.678-1.058-6.034A10.589 10.589 0 0 0 990.96 42q-1.8-3.48-7.32-3.48-1.68 0-3.3.12a55.81 55.81 0 0 0-2.313.222 65.893 65.893 0 0 0-1.107.138v44.28h-14.76ZM1068.72 69l1.92 11.88q-4.56 2.16-8.58 2.94-4.02.78-7.38.78a32.916 32.916 0 0 1-4.058-.236q-2.126-.265-3.924-.826a17.135 17.135 0 0 1-1.678-.618 15.539 15.539 0 0 1-4.357-2.768 14.216 14.216 0 0 1-1.883-2.092 17.975 17.975 0 0 1-2.386-4.514 23.479 23.479 0 0 1-.914-3.226q-.96-4.56-.96-10.44V39.12h-15.6V26.88h30.36V61.8a21.921 21.921 0 0 0 .147 2.631q.356 2.936 1.574 4.677a6.371 6.371 0 0 0 .139.192 5.73 5.73 0 0 0 2.77 1.955q1.453.505 3.41.505a19.31 19.31 0 0 0 1.648-.076q1.472-.126 3.272-.464 2.418-.453 5.344-1.71a40.426 40.426 0 0 0 1.136-.51Zm-20.04-58.32q0 4.32-2.76 6.84-2.76 2.52-6.6 2.52t-6.54-2.52a8.334 8.334 0 0 1-2.547-4.883 11.989 11.989 0 0 1-.153-1.957 11.733 11.733 0 0 1 .348-2.941 8.166 8.166 0 0 1 2.352-4.019q2.7-2.52 6.54-2.52t6.6 2.52a8.274 8.274 0 0 1 2.565 4.737 12.118 12.118 0 0 1 .195 2.223Zm43.08 51.6V39.12h-12.84V26.88h12.84V12.72l14.76-2.4v16.56h23.64v12.24h-23.64v22.8a26.965 26.965 0 0 0 .059 1.833q.129 1.887.541 3.207.6 1.92 1.68 3t2.64 1.44a13.73 13.73 0 0 0 1.841.289 18.073 18.073 0 0 0 1.639.071q2.04 0 3.78-.12a29.804 29.804 0 0 0 3.157-.383 27.433 27.433 0 0 0 .203-.037 22.21 22.21 0 0 0 2.284-.554 26.266 26.266 0 0 0 1.076-.346q1.74-.6 3.78-1.56l2.04 12.72q-4.08 1.68-8.82 2.4a62.453 62.453 0 0 1-7.504.695 55.829 55.829 0 0 1-1.676.025 54.302 54.302 0 0 1-4.285-.161q-2.2-.174-4.13-.538a31.623 31.623 0 0 1-.705-.141q-3.96-.84-6.72-3.24a12.746 12.746 0 0 1-2.624-3.217q-.923-1.578-1.576-3.563a24.74 24.74 0 0 1-.863-3.581q-.577-3.399-.577-7.879Zm84.36-35.4h15.12q-2.28 7.92-4.38 15.54-2.1 7.62-4.38 14.88-2.28 7.26-4.86 14.22-2.58 6.96-5.58 13.56a94.52 94.52 0 0 1-1.984 3.947q-1.267 2.376-2.516 4.333-2.22 3.48-4.92 5.7-2.7 2.22-6 3.3a20.614 20.614 0 0 1-3.464.793q-1.707.247-3.638.281a35.5 35.5 0 0 1-.638.006 40.03 40.03 0 0 1-3.766-.169 30.691 30.691 0 0 1-3.014-.431q-2.343-.459-4.088-1.13a15.078 15.078 0 0 1-1.012-.43l2.76-12.36a30.824 30.824 0 0 0 1.724.717q1.373.521 2.536.783a17.145 17.145 0 0 0 2.635.375 20.769 20.769 0 0 0 1.385.045 10.509 10.509 0 0 0 3.233-.475A8.524 8.524 0 0 0 1155 87.96a21.35 21.35 0 0 0 3.632-5.511 24.959 24.959 0 0 0 .568-1.329q-5.27-10.539-10.539-24.127a371.53 371.53 0 0 1-.021-.053 255.883 255.883 0 0 1-5.932-17.168 321.06 321.06 0 0 1-3.668-12.892h15.36q1.08 4.44 2.46 9.48t2.94 10.08q1.56 5.04 3.3 9.9a170.974 170.974 0 0 0 2.198 5.817 142.274 142.274 0 0 0 1.342 3.243q1.2-4.2 2.52-9.06t2.52-9.84q1.2-4.98 2.34-10.02 1.14-5.04 2.1-9.6Z" font-size="12" vector-effect="non-scaling-stroke"/>
</svg>